<svg xmlns="http://www.w3.org/2000/svg" width="61.507" height="59.105"><g stroke-width="1.123" style="fill:#000" transform="translate(-247.487 -135.954)scale(1.56993)"><circle cx="166.69" cy="95.647" r="9.048" style="fill:#000"/><rect width="15.875" height="15.875" x="158.75" y="108.33" rx="4.233" ry="4.233" style="fill:#000"/><path d="M69.514 58.833H57.486a2.444 2.444 60 0 1-2.116-3.666l6.014-10.416a2.444 2.444 0 0 1 4.233 0l6.014 10.416a2.444 2.444 120 0 1-2.117 3.666z" style="fill:#000" transform="rotate(210 65.423 41.703)scale(-1.0523 1.0523)"/><path d="M116.31-194.99c.88 0 1.588.708 1.588 1.588v12.7c0 .879-.709 1.587-1.588 1.587s-1.587-.708-1.587-1.587v-12.7c0-.88.708-1.588 1.587-1.588m-7.937 7.938c0-.88.708-1.588 1.587-1.588h12.7c.88 0 1.588.708 1.588 1.587 0 .88-.709 1.588-1.588 1.588h-12.7c-.88 0-1.587-.708-1.587-1.587" style="fill:#000" transform="rotate(90)"/></g></svg>